<?xml version="1.0" encoding="utf-8"?>
<!-- Generator: Adobe Illustrator 21.1.0, SVG Export Plug-In . SVG Version: 6.00 Build 0)  -->
<svg version="1.1" id="Layer_1" xmlns="http://www.w3.org/2000/svg" xmlns:xlink="http://www.w3.org/1999/xlink" x="0px" y="0px"
	 viewBox="0 0 1771.8 1442.6" style="enable-background:new 0 0 1771.8 1442.6;" xml:space="preserve">
<style type="text/css">
	.st0{fill:none;}
	.st1{font-family:'OratorStd';}
	.st2{font-size:28.6457px;}
	.st3{fill:#39B54A;}
</style>
<rect x="349.6" y="201.9" class="st0" width="253.7" height="20.3"/>
<text transform="matrix(1 0 0 1 349.5901 216.8491)" class="st1 st2">sphere</text>
<rect x="349.6" y="458" class="st0" width="253.7" height="44.2"/>
<text transform="matrix(1 0 0 1 349.5896 472.9421)" class="st1 st2">formation</text>
<rect x="349.6" y="711.3" class="st0" width="296.6" height="35.6"/>
<text transform="matrix(1 0 0 1 349.5896 726.219)" class="st1 st2">pyramid</text>
<rect x="349.6" y="974.4" class="st0" width="229.2" height="17.7"/>
<text transform="matrix(1 0 0 1 349.5901 989.3176)" class="st1 st2">rectangle</text>
<rect x="1048.4" y="976" class="st0" width="253.7" height="17.1"/>
<text transform="matrix(1 0 0 1 1048.3959 990.9328)" class="st1 st2">chevron</text>
<rect x="344.1" y="1235.5" class="st0" width="296.6" height="40.9"/>
<text transform="matrix(1 0 0 1 344.1473 1250.4652)" class="st1 st2">cross</text>
<rect x="1043.2" y="201.9" class="st0" width="253.7" height="20.3"/>
<text transform="matrix(1 0 0 1 1043.1976 216.8491)" class="st1 st2">cylinder</text>
<rect x="1048.4" y="458.8" class="st0" width="253.7" height="41"/>
<text transform="matrix(1 0 0 1 1048.3959 473.7531)" class="st1 st2">disk</text>
<rect x="1048.4" y="712.7" class="st0" width="253.7" height="16.4"/>
<text transform="matrix(1 0 0 1 1048.3959 727.6636)" class="st1 st2">diamond</text>
<rect x="1048.4" y="1237.5" class="st0" width="253.7" height="40.9"/>
<text transform="matrix(1 0 0 1 1048.3959 1252.4663)" class="st1 st2">other</text>
<circle class="st3" cx="708.7" cy="201.9" r="47.9"/>
<g>
	
		<ellipse transform="matrix(0.9915 -0.1303 0.1303 0.9915 -146.341 189.5197)" class="st3" cx="1375.6" cy="1213.5" rx="47.9" ry="10.6"/>
	
		<ellipse transform="matrix(0.9915 -0.1303 0.1303 0.9915 -155.1492 190.0958)" class="st3" cx="1375.6" cy="1281.1" rx="47.9" ry="10.6"/>
	
		<ellipse transform="matrix(0.1202 -0.9928 0.9928 0.1202 -5.4255 2443.0615)" class="st3" cx="1375.6" cy="1224.6" rx="10.6" ry="47.9"/>
	
		<ellipse transform="matrix(0.9915 -0.1303 0.1303 0.9915 -149.2714 189.7113)" class="st3" cx="1375.6" cy="1236" rx="47.9" ry="10.6"/>
	
		<ellipse transform="matrix(0.9915 -0.1303 0.1303 0.9915 -152.1421 189.8991)" class="st3" cx="1375.6" cy="1258" rx="47.9" ry="10.6"/>
	
		<ellipse transform="matrix(0.1202 -0.9928 0.9928 0.1202 -27.5216 2462.644)" class="st3" cx="1375.6" cy="1246.8" rx="10.6" ry="47.9"/>
	
		<ellipse transform="matrix(0.1202 -0.9928 0.9928 0.1202 -50.4789 2482.9897)" class="st3" cx="1375.6" cy="1270" rx="10.6" ry="47.9"/>
</g>
<circle class="st3" cx="684.3" cy="431.5" r="8.8"/>
<circle class="st3" cx="733" cy="459.3" r="8.8"/>
<circle class="st3" cx="684.3" cy="487.1" r="8.8"/>
<circle class="st3" cx="733" cy="513.4" r="8.8"/>
<polygon class="st3" points="708.7,666 654.2,760.4 763.2,760.4 "/>
<rect x="684.7" y="935.3" class="st3" width="47.9" height="95.9"/>
<g>
	<rect x="696.7" y="1199.9" class="st3" width="24" height="95.9"/>
	
		<rect x="696.7" y="1197.1" transform="matrix(3.635676e-11 -1 1 3.635676e-11 -527.1774 1944.5161)" class="st3" width="24" height="77.5"/>
</g>
<g>
	<rect x="1351.6" y="154.4" class="st3" width="47.9" height="95.9"/>
	<ellipse class="st3" cx="1375.6" cy="153.9" rx="24" ry="7.2"/>
	<ellipse class="st3" cx="1375.6" cy="249.9" rx="24" ry="7.2"/>
</g>
<ellipse transform="matrix(0.9534 -0.3019 0.3019 0.9534 -74.4769 436.6666)" class="st3" cx="1375.6" cy="459.3" rx="54.5" ry="11.6"/>
<rect x="1332.8" y="686" transform="matrix(0.7071 -0.7071 0.7071 0.7071 -108.7678 1177.2539)" class="st3" width="67.8" height="67.8"/>
<circle class="st3" cx="1375.5" cy="956.2" r="8.8"/>
<circle class="st3" cx="1357.9" cy="984.6" r="8.8"/>
<circle class="st3" cx="1393.1" cy="984.6" r="8.8"/>
<circle class="st3" cx="1407" cy="1010.3" r="8.8"/>
<circle class="st3" cx="1344.3" cy="1010.3" r="8.8"/>
</svg>
